<!DOCTYPE svg PUBLIC "-//W3C//DTD SVG 20010904//EN" "http://www.w3.org/TR/2001/REC-SVG-20010904/DTD/svg10.dtd">
<svg version="1.0" xmlns="http://www.w3.org/2000/svg" width="318px" height="159px" viewBox="0 0 3180 1590" preserveAspectRatio="xMidYMid meet">
<g id="layer1" fill="#d17a7a" stroke="none">
 </g>
<g id="layer2" fill="#ba7676" stroke="none">
 <path d="M12 650 c0 -14 2 -19 5 -12 2 6 2 18 0 25 -3 6 -5 1 -5 -13z"/>
 <path d="M16 577 c3 -10 9 -15 12 -12 3 3 0 11 -7 18 -10 9 -11 8 -5 -6z"/>
 </g>
<g id="layer3" fill="#956f6f" stroke="none">
 <path d="M453 993 c9 -2 23 -2 30 0 6 3 -1 5 -18 5 -16 0 -22 -2 -12 -5z"/>
 <path d="M508 993 c6 -2 18 -2 25 0 6 3 1 5 -13 5 -14 0 -19 -2 -12 -5z"/>
 </g>
<g id="layer4" fill="#748a92" stroke="none">
 <path d="M1735 1160 c3 -5 8 -10 11 -10 2 0 4 5 4 10 0 6 -5 10 -11 10 -5 0 -7 -4 -4 -10z"/>
 <path d="M1795 1110 c3 -5 8 -10 11 -10 2 0 4 5 4 10 0 6 -5 10 -11 10 -5 0 -7 -4 -4 -10z"/>
 <path d="M1725 1060 c3 -5 8 -10 11 -10 2 0 4 5 4 10 0 6 -5 10 -11 10 -5 0 -7 -4 -4 -10z"/>
 <path d="M1860 1061 c0 -5 5 -13 10 -16 6 -3 10 -2 10 4 0 5 -4 13 -10 16 -5 3 -10 2 -10 -4z"/>
 <path d="M1735 1010 c3 -5 8 -10 11 -10 2 0 4 5 4 10 0 6 -5 10 -11 10 -5 0 -7 -4 -4 -10z"/>
 <path d="M1925 1000 c3 -5 8 -10 11 -10 2 0 4 5 4 10 0 6 -5 10 -11 10 -5 0 -7 -4 -4 -10z"/>
 <path d="M2728 973 c7 -3 16 -2 19 1 4 3 -2 6 -13 5 -11 0 -14 -3 -6 -6z"/>
 <path d="M1745 960 c3 -5 8 -10 11 -10 2 0 4 5 4 10 0 6 -5 10 -11 10 -5 0 -7 -4 -4 -10z"/>
 <path d="M2800 956 c0 -2 8 -10 18 -17 15 -13 16 -12 3 4 -13 16 -21 21 -21 13z"/>
 <path d="M2240 940 c-9 -6 -10 -10 -3 -10 6 0 15 5 18 10 8 12 4 12 -15 0z"/>
 <path d="M2778 823 c6 -2 18 -2 25 0 6 3 1 5 -13 5 -14 0 -19 -2 -12 -5z"/>
 <path d="M2938 823 c7 -3 16 -2 19 1 4 3 -2 6 -13 5 -11 0 -14 -3 -6 -6z"/>
 <path d="M2885 710 c3 -5 8 -10 11 -10 2 0 4 5 4 10 0 6 -5 10 -11 10 -5 0 -7 -4 -4 -10z"/>
 </g>
<g id="layer5" fill="#5f6767" stroke="none">
 <path d="M784 1134 c-18 -14 -18 -15 4 -4 12 6 22 13 22 15 0 8 -5 6 -26 -11z"/>
 <path d="M714 1094 c-18 -14 -18 -15 4 -4 12 6 22 13 22 15 0 8 -5 6 -26 -11z"/>
 <path d="M644 1054 c-18 -14 -18 -15 4 -4 12 6 22 13 22 15 0 8 -5 6 -26 -11z"/>
 <path d="M574 1014 c-18 -14 -18 -15 4 -4 12 6 22 13 22 15 0 8 -5 6 -26 -11z"/>
 <path d="M427 1008 c2 -5 26 -8 54 -8 27 0 49 3 49 8 0 4 -24 7 -54 7 -30 0 -52 -3 -49 -7z"/>
 <path d="M383 993 c9 -2 23 -2 30 0 6 3 -1 5 -18 5 -16 0 -22 -2 -12 -5z"/>
 <path d="M338 983 c7 -3 16 -2 19 1 4 3 -2 6 -13 5 -11 0 -14 -3 -6 -6z"/>
 <path d="M218 944 c-39 -21 -35 -28 5 -8 37 19 44 24 31 24 -5 -1 -21 -8 -36 -16z"/>
 <path d="M134 888 l-19 -23 23 19 c12 11 22 21 22 23 0 8 -8 2 -26 -19z"/>
 <path d="M68 823 c-18 -21 -31 -43 -25 -43 2 0 13 14 25 30 25 33 24 41 0 13z"/>
 <path d="M3172 810 c0 -14 2 -19 5 -12 2 6 2 18 0 25 -3 6 -5 1 -5 -13z"/>
 <path d="M3172 730 c0 -14 2 -19 5 -12 2 6 2 18 0 25 -3 6 -5 1 -5 -13z"/>
 <path d="M0 716 c0 -8 5 -18 10 -21 6 -3 10 1 10 9 0 8 -4 18 -10 21 -5 3 -10 -1 -10 -9z"/>
 <path d="M1 624 c0 -11 3 -14 6 -6 3 7 2 16 -1 19 -3 4 -6 -2 -5 -13z"/>
 </g>
<g id="layer6" fill="#5ea3a5" stroke="none">
 <path d="M1424 1248 l-19 -23 23 19 c21 18 27 26 19 26 -2 0 -12 -10 -23 -22z"/>
 <path d="M1339 1153 l-24 -28 28 24 c25 23 32 31 24 31 -2 0 -14 -12 -28 -27z"/>
 <path d="M1138 1083 c6 -2 18 -2 25 0 6 3 1 5 -13 5 -14 0 -19 -2 -12 -5z"/>
 <path d="M810 916 c0 -2 8 -10 18 -17 15 -13 16 -12 3 4 -13 16 -21 21 -21 13z"/>
 <path d="M850 887 c0 -2 15 -16 33 -33 l32 -29 -29 33 c-28 30 -36 37 -36 29z"/>
 <path d="M930 790 c6 -11 13 -20 16 -20 2 0 0 9 -6 20 -6 11 -13 20 -16 20 -2 0 0 -9 6 -20z"/>
 <path d="M973 645 c0 -33 2 -45 4 -27 2 18 2 45 0 60 -2 15 -4 0 -4 -33z"/>
 <path d="M941 523 c-10 -26 -10 -27 4 -9 8 11 15 23 15 28 0 15 -7 8 -19 -19z"/>
 <path d="M1203 403 c9 -2 25 -2 35 0 9 3 1 5 -18 5 -19 0 -27 -2 -17 -5z"/>
 </g>
<g id="layer7" fill="#5f5f5f" stroke="none">
 <path d="M3075 1290 c-10 -11 -13 -20 -7 -20 6 0 16 9 22 20 6 11 9 20 7 20 -2 0 -12 -9 -22 -20z"/>
 <path d="M1354 1208 l-29 -33 33 29 c30 28 37 36 29 36 -2 0 -16 -15 -33 -32z"/>
 <path d="M859 1193 c-13 -16 -12 -17 4 -4 9 7 17 15 17 17 0 8 -8 3 -21 -13z"/>
 <path d="M2670 1120 c-30 -6 -27 -8 25 -9 42 0 56 2 45 9 -17 11 -19 11 -70 0z"/>
 <path d="M1098 1103 c6 -2 18 -2 25 0 6 3 1 5 -13 5 -14 0 -19 -2 -12 -5z"/>
 <path d="M2588 1103 c7 -3 16 -2 19 1 4 3 -2 6 -13 5 -11 0 -14 -3 -6 -6z"/>
 <path d="M2768 1103 c7 -3 16 -2 19 1 4 3 -2 6 -13 5 -11 0 -14 -3 -6 -6z"/>
 <path d="M634 1064 c-18 -14 -18 -15 4 -4 12 6 22 13 22 15 0 8 -5 6 -26 -11z"/>
 <path d="M2454 1054 c-18 -14 -18 -14 6 -3 31 14 36 19 24 19 -6 0 -19 -7 -30 -16z"/>
 <path d="M564 1024 c-18 -14 -18 -15 4 -4 12 6 22 13 22 15 0 8 -5 6 -26 -11z"/>
 <path d="M390 1010 c-24 -8 -23 -8 8 -9 20 -1 31 3 27 9 -3 6 -7 10 -8 9 -1 -1 -13 -5 -27 -9z"/>
 <path d="M854 998 l-19 -23 23 19 c21 18 27 26 19 26 -2 0 -12 -10 -23 -22z"/>
 <path d="M2364 988 l-29 -33 33 29 c30 28 37 36 29 36 -2 0 -16 -15 -33 -32z"/>
 <path d="M328 993 c7 -3 16 -2 19 1 4 3 -2 6 -13 5 -11 0 -14 -3 -6 -6z"/>
 <path d="M1953 984 c4 -4 44 -9 89 -11 83 -3 195 -26 212 -43 6 -6 17 -10 25 -10 30 0 -4 18 -74 40 -69 21 -267 41 -252 24z"/>
 <path d="M194 944 c-18 -14 -18 -14 6 -3 31 14 36 19 24 19 -6 0 -19 -7 -30 -16z"/>
 <path d="M1745 931 c-3 -5 -1 -12 5 -16 5 -3 10 1 10 9 0 18 -6 21 -15 7z"/>
 <path d="M1716 911 c-4 -5 -2 -12 3 -15 5 -4 12 -2 15 3 4 5 2 12 -3 15 -5 4 -12 2 -15 -3z"/>
 <path d="M95 868 l-40 -43 43 40 c23 21 42 40 42 42 0 8 -9 0 -45 -39z"/>
 <path d="M1686 892 c-3 -5 1 -9 9 -9 8 0 12 4 9 9 -3 4 -7 8 -9 8 -2 0 -6 -4 -9 -8z"/>
 </g>
<g id="layer8" fill="#6a6b6b" stroke="none">
 <path d="M1395 1259 c-24 -23 -43 -44 -42 -49 1 -4 -18 -26 -43 -49 -25 -24 -38 -39 -30 -35 8 4 12 3 7 -1 -4 -5 -41 -8 -82 -7 -50 2 -75 -2 -75 -9 0 -7 -11 -9 -30 -5 -18 3 -30 1 -30 -5 0 -6 -9 -8 -20 -4 -12 4 -20 2 -20 -5 0 -7 -7 -10 -15 -6 -8 3 -15 1 -15 -5 0 -6 -7 -9 -15 -5 -8 3 -15 1 -15 -5 0 -6 -4 -7 -10 -4 -5 3 -10 1 -10 -5 0 -6 -4 -8 -10 -5 -5 3 -10 1 -10 -5 0 -6 -4 -9 -9 -6 -5 3 -12 -1 -15 -10 -3 -8 -10 -13 -15 -10 -5 3 -12 -1 -15 -10 -3 -8 -10 -13 -15 -10 -7 5 -81 -66 -81 -78 0 -14 35 6 73 41 85 79 200 122 342 128 l90 5 83 91 c74 82 93 109 77 109 -3 0 -25 -18 -50 -41z m-5 -23 c0 -2 -8 -10 -17 -17 -16 -13 -17 -12 -4 4 13 16 21 21 21 13z"/>
 <path d="M3046 1268 c-9 -13 -14 -16 -11 -8 4 8 -3 4 -15 -10 -12 -14 -19 -18 -15 -10 4 8 -3 4 -15 -10 -12 -14 -19 -18 -15 -10 4 8 -3 4 -15 -10 -12 -14 -19 -18 -15 -10 4 8 -3 4 -15 -10 -12 -14 -19 -18 -15 -10 4 8 -3 4 -14 -10 -11 -14 -21 -21 -21 -16 0 6 -7 1 -15 -10 -8 -10 -15 -14 -15 -9 0 6 -4 4 -9 -4 -5 -8 -15 -16 -23 -17 -7 -2 -24 -6 -37 -10 -14 -4 -22 -3 -19 2 4 5 -28 9 -73 9 -43 0 -79 -4 -79 -9 0 -4 -9 -6 -20 -3 -11 3 -20 1 -20 -5 0 -5 -10 -6 -21 -3 -16 5 -19 4 -14 -6 6 -9 3 -11 -8 -6 -10 3 -17 2 -17 -3 0 -5 -7 -6 -17 -3 -12 5 -14 3 -8 -7 6 -10 4 -12 -9 -7 -9 4 -15 3 -12 -2 3 -5 -1 -12 -10 -15 -10 -4 -13 -2 -9 7 4 6 -3 1 -15 -13 -12 -14 -19 -18 -15 -10 4 8 -3 3 -15 -12 -12 -15 -36 -39 -53 -54 -18 -14 -25 -23 -17 -19 10 4 9 1 -2 -8 -17 -14 -25 -37 -12 -37 3 0 26 23 51 50 25 28 64 62 87 75 97 57 245 87 319 67 38 -11 41 -10 167 75 94 62 128 90 127 104 -2 24 -1 24 -21 -3z"/>
 <path d="M843 1183 c-3 -7 -9 -10 -14 -7 -5 3 -9 0 -9 -6 0 -6 -4 -8 -10 -5 -5 3 -10 1 -10 -5 0 -6 -5 -8 -10 -5 -6 3 -13 -1 -16 -9 -3 -9 -10 -13 -15 -10 -5 3 -9 0 -9 -6 0 -6 -4 -8 -10 -5 -5 3 -10 1 -10 -5 0 -6 -5 -8 -10 -5 -6 3 -13 -1 -16 -9 -3 -9 -10 -13 -15 -10 -5 3 -9 0 -9 -6 0 -6 -4 -8 -10 -5 -5 3 -10 1 -10 -5 0 -6 -6 -8 -12 -4 -8 4 -10 3 -5 -2 14 -15 31 -11 52 11 11 11 27 20 35 20 8 -1 24 8 35 20 11 11 27 20 35 20 8 -1 25 10 37 22 12 13 25 23 29 22 3 0 8 1 10 4 2 2 -3 4 -12 4 -9 0 -18 -6 -21 -14z"/>
 <path d="M1717 1173 c-9 -9 -8 -45 1 -60 5 -7 8 4 7 27 0 22 0 40 -1 40 0 0 -4 -3 -7 -7z"/>
 <path d="M610 1048 c0 -5 -4 -6 -10 -3 -5 3 -10 1 -10 -5 0 -6 -6 -8 -12 -4 -7 4 -9 3 -5 -1 13 -15 31 -13 49 5 15 14 15 17 3 17 -8 0 -15 -4 -15 -9z"/>
 <path d="M3030 1020 c0 -5 5 -10 11 -10 5 0 7 5 4 10 -3 6 -8 10 -11 10 -2 0 -4 -4 -4 -10z"/>
 <path d="M458 1013 c12 -2 30 -2 40 0 9 3 -1 5 -23 4 -22 0 -30 -2 -17 -4z"/>
 <path d="M537 1004 c6 -17 8 -17 21 -1 8 10 6 13 -8 14 -13 1 -17 -3 -13 -13z"/>
 <path d="M350 1001 c0 -6 5 -13 10 -16 6 -3 10 1 10 9 0 9 -4 16 -10 16 -5 0 -10 -4 -10 -9z"/>
 <path d="M310 990 c0 -5 5 -10 11 -10 5 0 7 5 4 10 -3 6 -8 10 -11 10 -2 0 -4 -4 -4 -10z"/>
 <path d="M275 980 c3 -5 11 -10 16 -10 6 0 7 5 4 10 -3 6 -11 10 -16 10 -6 0 -7 -4 -4 -10z"/>
 <path d="M2098 983 c7 -3 16 -2 19 1 4 3 -2 6 -13 5 -11 0 -14 -3 -6 -6z"/>
 <path d="M3070 986 c0 -2 8 -10 18 -17 15 -13 16 -12 3 4 -13 16 -21 21 -21 13z"/>
 <path d="M250 970 c0 -5 5 -10 11 -10 5 0 7 5 4 10 -3 6 -8 10 -11 10 -2 0 -4 -4 -4 -10z"/>
 <path d="M2018 973 c6 -2 18 -2 25 0 6 3 1 5 -13 5 -14 0 -19 -2 -12 -5z"/>
 <path d="M225 960 c3 -5 8 -10 11 -10 2 0 4 5 4 10 0 6 -5 10 -11 10 -5 0 -7 -4 -4 -10z"/>
 <path d="M2180 960 c-8 -5 -10 -10 -5 -10 6 0 17 5 25 10 8 5 11 10 5 10 -5 0 -17 -5 -25 -10z"/>
 <path d="M174 936 c-3 -9 -10 -14 -15 -11 -4 3 -13 -4 -19 -15 -6 -11 -15 -18 -19 -16 -4 3 -21 -8 -36 -24 -16 -17 -25 -30 -20 -30 5 0 0 -7 -11 -16 -13 -11 -9 -10 14 3 19 10 46 35 62 56 15 21 30 34 31 29 2 -5 12 -1 22 8 12 12 15 20 8 25 -6 3 -14 -1 -17 -9z m-54 -49 c0 -2 -12 -14 -27 -28 l-28 -24 24 28 c23 25 31 32 31 24z"/>
 <path d="M1730 920 c0 -6 -5 -8 -10 -5 -6 3 -13 -1 -16 -9 -3 -9 -10 -14 -14 -11 -4 3 -13 -2 -19 -9 -21 -25 6 -26 35 -1 15 13 31 22 36 19 4 -3 8 -1 8 5 0 5 -4 13 -10 16 -5 3 -10 1 -10 -5z"/>
 <path d="M28 773 c7 -3 16 -2 19 1 4 3 -2 6 -13 5 -11 0 -14 -3 -6 -6z"/>
 <path d="M2 670 c0 -19 2 -27 5 -17 2 9 2 25 0 35 -3 9 -5 1 -5 -18z"/>
 </g>
<g id="layer9" fill="#5e9ea0" stroke="none">
 <path d="M1450 1278 c0 -9 -20 -32 -45 -52 -24 -21 -44 -41 -42 -46 1 -5 -19 -28 -45 -52 -46 -43 -47 -43 -130 -45 -78 -2 -130 -7 -135 -13 -2 -1 -7 -4 -13 -5 -5 -1 -12 -4 -15 -5 -3 -1 -8 -3 -12 -4 -5 -1 -18 -7 -30 -14 -13 -7 -23 -10 -23 -7 0 3 -10 -3 -22 -14 -11 -11 -24 -18 -28 -16 -5 3 -11 -2 -14 -11 -3 -8 -10 -13 -14 -10 -5 3 -26 -13 -47 -34 -22 -22 -36 -41 -32 -41 4 -1 12 -2 17 -3 6 0 15 -8 20 -16 5 -8 10 -11 10 -6 0 5 7 3 15 -4 8 -7 13 -16 10 -20 -3 -5 0 -12 6 -16 8 -5 9 -3 4 7 -8 12 -6 12 8 0 9 -7 17 -17 17 -22 0 -5 9 -18 20 -29 12 -12 18 -25 15 -30 -4 -6 -1 -10 5 -10 7 0 10 -6 7 -14 -3 -8 -1 -16 6 -19 8 -2 12 -30 12 -82 0 -52 -4 -80 -12 -82 -7 -3 -10 -10 -7 -18 3 -7 -4 -23 -15 -34 -28 -28 -27 -36 12 -51 17 -7 46 -18 63 -26 39 -17 92 -25 184 -29 76 -2 187 11 205 24 6 4 28 13 51 19 22 6 57 26 77 44 36 33 37 34 26 78 -18 80 6 165 72 242 22 27 35 48 30 48 -6 0 -11 6 -11 14 0 17 -50 95 -62 97 -4 1 -14 2 -20 3 -7 1 -12 9 -12 18 1 11 -5 15 -18 13 -15 -3 -18 0 -14 12 5 13 4 13 -7 4 -22 -18 -38 10 -42 71 -6 102 -16 192 -20 197 -3 2 -5 -3 -5 -11z m-36 -354 c12 -90 2 -99 -31 -30 -17 34 -30 47 -59 56 -43 15 -123 8 -135 -11 -10 -16 -12 -312 -3 -346 5 -18 14 -23 40 -23 19 0 34 -4 34 -10 0 -6 -40 -10 -100 -10 -55 0 -100 4 -100 9 0 5 12 11 28 13 l27 3 3 183 2 183 -32 14 c-30 13 -18 14 143 15 l176 0 7 -46z"/>
 </g>
<g id="layer10" fill="#6f7f90" stroke="none">
 <path d="M3070 1260 c0 -4 -58 -46 -129 -93 -127 -85 -130 -86 -168 -75 -74 20 -222 -10 -318 -66 -53 -32 -121 -106 -146 -159 -29 -66 -25 -141 12 -215 34 -69 85 -116 169 -156 77 -37 113 -46 215 -52 100 -7 190 13 293 64 68 33 148 119 163 175 30 113 9 195 -73 279 -34 35 -60 67 -59 71 1 5 -3 6 -9 2 -5 -3 -16 -2 -25 2 -12 7 -12 12 0 33 8 14 22 41 32 60 9 19 23 42 30 50 7 9 19 32 27 51 13 31 13 36 0 36 -8 0 -14 -3 -14 -7z m-252 -286 l82 -19 0 -48 c0 -61 13 -87 40 -80 14 4 20 0 20 -12 0 -12 -5 -15 -16 -11 -9 3 -51 6 -95 6 -49 0 -79 4 -79 11 0 6 12 9 27 7 22 -2 29 2 37 25 22 61 -37 125 -112 121 -101 -5 -155 -112 -130 -259 13 -76 36 -108 92 -129 36 -14 52 -15 84 -6 47 12 97 64 107 109 4 17 11 31 17 31 6 0 7 -7 4 -16 -3 -9 -6 -42 -6 -75 0 -33 -4 -59 -10 -59 -5 0 -10 12 -10 27 0 24 -1 25 -17 11 -73 -64 -196 -64 -266 0 -47 44 -69 104 -69 183 1 65 4 74 39 120 28 36 50 54 88 68 54 21 52 21 173 -5z"/>
 <path d="M1339 1163 c-13 -16 -12 -17 4 -4 16 13 21 21 13 21 -2 0 -10 -8 -17 -17z"/>
 <path d="M1188 1093 c18 -2 45 -2 60 0 15 2 0 4 -33 4 -33 0 -45 -2 -27 -4z"/>
 <path d="M1560 990 c0 -5 5 -10 11 -10 5 0 7 5 4 10 -3 6 -8 10 -11 10 -2 0 -4 -4 -4 -10z"/>
 </g>
<g id="layer11" fill="#add8e6" stroke="none">
 <path d="M1736 1066 c13 -61 23 -120 24 -131 0 -14 -21 -35 -63 -66 -181 -131 -192 -331 -25 -474 192 -164 541 -158 730 13 46 41 77 94 59 100 -6 2 -33 21 -60 42 -94 74 -136 211 -96 307 9 20 12 40 7 45 -24 24 -164 60 -254 65 -90 5 -100 8 -130 36 -18 16 -24 23 -13 16 18 -13 19 -13 6 3 -7 10 -17 16 -21 13 -11 -7 -45 21 -45 37 0 7 -4 13 -10 13 -20 1 -55 26 -52 37 1 7 -2 12 -8 13 -19 1 -56 26 -51 34 3 4 -1 8 -8 8 -10 0 -7 -26 10 -111z m392 -232 c175 -73 175 -325 0 -398 -45 -19 -125 -21 -182 -4 -59 18 -120 82 -135 143 -28 110 28 223 129 264 39 15 146 13 188 -5z"/>
 <path d="M1989 831 c-80 -26 -110 -79 -110 -196 0 -137 48 -198 157 -199 105 -1 164 90 151 232 -7 70 -28 115 -67 143 -29 22 -94 32 -131 20z"/>
 </g>
<g id="layer12" fill="#f07f7f" stroke="none">
 <path d="M885 1180 c-4 -6 -11 -8 -16 -5 -5 4 -9 2 -9 -2 0 -5 -69 -48 -153 -96 -149 -85 -155 -87 -219 -87 -195 0 -367 -86 -436 -220 -32 -61 -34 -70 -30 -143 4 -70 8 -83 44 -135 78 -114 217 -181 394 -189 128 -6 212 11 312 64 207 109 258 313 116 468 -28 31 -68 65 -89 76 -45 22 -45 19 24 139 61 106 79 140 73 140 -3 0 -8 -5 -11 -10z m-304 -319 c33 -16 59 -60 59 -99 0 -39 -37 -82 -81 -97 l-34 -12 32 -16 c67 -35 80 -88 34 -139 l-29 -33 -134 -3 c-124 -2 -131 -1 -100 13 l32 14 -2 183 -3 183 -25 3 c-14 2 -29 8 -35 14 -15 15 254 5 286 -11z"/>
 <path d="M432 843 c-4 -10 -7 -54 -7 -98 l0 -80 49 2 c67 2 96 30 96 93 0 68 -27 100 -86 100 -33 0 -46 -5 -52 -17z"/>
 <path d="M427 643 c-4 -3 -7 -44 -7 -90 l0 -83 39 0 c57 0 91 31 91 81 0 22 -4 49 -10 59 -15 27 -95 51 -113 33z"/>
 </g>

</svg>